<svg xmlns="http://www.w3.org/2000/svg" xml:space="preserve" id="Layer_1" style="enable-background:new 0 0 512 512" version="1.1" viewBox="0 0 512 512"><style>.st0{fill:#f47822}</style><g id="XMLID_775_"><path id="XMLID_785_" d="M261.6 327.3h-15.1V352h15.1c4.3 0 7.6-1.2 9.8-3.5 2.2-2.3 3.3-5.2 3.3-8.8 0-3.6-1.1-6.5-3.3-8.9-2.2-2.3-5.4-3.5-9.8-3.5z" class="st0"/><path id="XMLID_780_" d="M365.6 285.9H40.3v133.9h276.3l49-133.9zm-223.8 69.5c-4.4 4-10.4 5.9-18.1 5.9h-15.1v26.5H96.8v-70h26.8c7.7 0 13.8 2 18.1 6 4.4 4 6.6 9.2 6.6 15.7.1 6.7-2.1 12-6.5 15.9zm75.3 32.5h-11.7V358h-31.3v29.9h-11.7v-70h11.7v30.8h31.3v-30.8h11.7v70zm62.7-32.5c-4.4 4-10.4 5.9-18.1 5.9h-15.1v26.5h-11.7v-70h26.8c7.7 0 13.8 2 18.1 6 4.4 4 6.6 9.2 6.6 15.7-.1 6.7-2.3 12-6.6 15.9z" class="st0"/><path id="XMLID_779_" d="M123.6 327.3h-15.1V352h15.1c4.3 0 7.6-1.2 9.8-3.5 2.2-2.3 3.3-5.2 3.3-8.8 0-3.6-1.1-6.5-3.3-8.9-2.2-2.3-5.4-3.5-9.8-3.5z" class="st0"/><path id="XMLID_778_" d="M352.9 6H107.4c-7.3 0-13.3 6-13.3 13.3v256.8h26.6V32.6h232.2v92.2h92.2v354.6H120.7v-49.8H94.1v63.1c0 7.3 6 13.3 13.3 13.3h351c7.3 0 13.3-6 13.3-13.3V124.8L352.9 6z" class="st0"/><path id="XMLID_777_" d="M156.2 171.4h253.4V191H156.2z" class="st0"/><path id="XMLID_776_" d="M156.2 209.5h213.3v19.6H156.2z" class="st0"/></g></svg>