<svg width="26" height="16" viewBox="0 0 26 16" fill="none" xmlns="http://www.w3.org/2000/svg">
<path d="M10.2882 7.29552C11.6684 6.6358 12.3889 5.63753 12.3889 4.08371C12.3889 1.01948 10.1059 0.272949 7.47135 0.272949H0.21875V15.6549H7.67535C10.4705 15.6549 13.0964 14.3137 13.0964 11.1887C13.0964 9.25732 12.1806 7.82937 10.2882 7.29552ZM3.59983 2.89882H6.77257C7.99219 2.89882 9.09028 3.2417 9.09028 4.65663C9.09028 5.96305 8.23524 6.48823 7.02865 6.48823H3.59983V2.89882ZM7.21528 13.042H3.59983V8.80593H7.28472C8.77344 8.80593 9.71528 9.4266 9.71528 11.0021C9.71528 12.5559 8.59115 13.042 7.21528 13.042ZM22.7752 2.595H16.5382V1.08024H22.7752V2.595ZM25.2188 10.2469C25.2188 6.95264 23.2917 4.20524 19.7977 4.20524C16.4036 4.20524 14.099 6.75732 14.099 10.0993C14.099 13.5672 16.2821 15.9457 19.7977 15.9457C22.4583 15.9457 24.1814 14.7478 25.0104 12.2H22.3108C22.02 13.1506 20.822 13.654 19.8932 13.654C18.1007 13.654 17.1589 12.6037 17.1589 10.8198H25.1927C25.2057 10.6375 25.2188 10.4422 25.2188 10.2469ZM17.1632 8.89274C17.263 7.43007 18.2352 6.51427 19.7023 6.51427C21.2387 6.51427 22.0113 7.41705 22.1415 8.89274H17.1632Z"/>
</svg>
