<svg width="402" height="396" viewBox="0 0 402 396" fill="none" xmlns="http://www.w3.org/2000/svg">
<g opacity="0.75" filter="url(#filter0_f_4_4)">
<path d="M-409.111 425.41C-370.132 342.414 -285.505 350.162 -198.111 322.41C-65.8772 280.42 102.177 164.488 155.889 292.41C188.21 369.39 151.212 428.303 110.889 501.41C28.279 651.184 -140.22 775.697 -286.111 686.41C-382.22 627.592 -457.011 527.401 -409.111 425.41Z" fill="#EA4620"/>
<path d="M-409.111 425.41C-370.132 342.414 -285.505 350.162 -198.111 322.41C-65.8772 280.42 102.177 164.488 155.889 292.41C188.21 369.39 151.212 428.303 110.889 501.41C28.279 651.184 -140.22 775.697 -286.111 686.41C-382.22 627.592 -457.011 527.401 -409.111 425.41Z" stroke="#141B26"/>
</g>
<defs>
<filter id="filter0_f_4_4" x="-657.5" y="0.5" width="1059.21" height="949.386" filterUnits="userSpaceOnUse" color-interpolation-filters="sRGB">
<feFlood flood-opacity="0" result="BackgroundImageFix"/>
<feBlend mode="normal" in="SourceGraphic" in2="BackgroundImageFix" result="shape"/>
<feGaussianBlur stdDeviation="116.5" result="effect1_foregroundBlur_4_4"/>
</filter>
</defs>
</svg>
