<svg width="23" height="23" viewBox="0 0 23 23" fill="none" xmlns="http://www.w3.org/2000/svg">
<path d="M11.1648 5.49902C8.05933 5.49902 5.55444 8.00391 5.55444 11.1094C5.55444 14.2148 8.05933 16.7197 11.1648 16.7197C14.2703 16.7197 16.7751 14.2148 16.7751 11.1094C16.7751 8.00391 14.2703 5.49902 11.1648 5.49902ZM11.1648 14.7568C9.15796 14.7568 7.51733 13.1211 7.51733 11.1094C7.51733 9.09766 9.15308 7.46191 11.1648 7.46191C13.1765 7.46191 14.8123 9.09766 14.8123 11.1094C14.8123 13.1211 13.1716 14.7568 11.1648 14.7568ZM18.3132 5.26953C18.3132 5.99707 17.7273 6.57813 17.0046 6.57813C16.2771 6.57813 15.696 5.99219 15.696 5.26953C15.696 4.54688 16.282 3.96094 17.0046 3.96094C17.7273 3.96094 18.3132 4.54688 18.3132 5.26953ZM22.0291 6.59766C21.946 4.84473 21.5457 3.29199 20.2615 2.0127C18.9822 0.733398 17.4294 0.333008 15.6765 0.245117C13.8699 0.142578 8.45483 0.142578 6.64819 0.245117C4.90015 0.328125 3.34741 0.728516 2.06323 2.00781C0.779053 3.28711 0.383545 4.83984 0.295654 6.59277C0.193115 8.39941 0.193115 13.8145 0.295654 15.6211C0.378662 17.374 0.779053 18.9268 2.06323 20.2061C3.34741 21.4854 4.89526 21.8857 6.64819 21.9736C8.45483 22.0762 13.8699 22.0762 15.6765 21.9736C17.4294 21.8906 18.9822 21.4902 20.2615 20.2061C21.5408 18.9268 21.9412 17.374 22.0291 15.6211C22.1316 13.8145 22.1316 8.4043 22.0291 6.59766ZM19.6951 17.5596C19.3142 18.5166 18.5769 19.2539 17.615 19.6396C16.1746 20.2109 12.7566 20.0791 11.1648 20.0791C9.573 20.0791 6.15015 20.2061 4.7146 19.6396C3.75757 19.2588 3.02026 18.5215 2.63452 17.5596C2.06323 16.1191 2.19507 12.7012 2.19507 11.1094C2.19507 9.51758 2.06812 6.09473 2.63452 4.65918C3.01538 3.70215 3.75269 2.96484 4.7146 2.5791C6.15503 2.00781 9.573 2.13965 11.1648 2.13965C12.7566 2.13965 16.1794 2.0127 17.615 2.5791C18.572 2.95996 19.3093 3.69727 19.6951 4.65918C20.2664 6.09961 20.1345 9.51758 20.1345 11.1094C20.1345 12.7012 20.2664 16.124 19.6951 17.5596Z"/>
</svg>
