<svg width="22" height="23" viewBox="0 0 22 23" fill="none" xmlns="http://www.w3.org/2000/svg">
<path d="M5.00195 22.0466H0.466797V7.44214H5.00195V22.0466ZM2.73193 5.44995C1.28174 5.44995 0.105469 4.24878 0.105469 2.79858C0.105469 2.102 0.382185 1.43395 0.874743 0.941393C1.3673 0.448835 2.03535 0.172119 2.73193 0.172119C3.42852 0.172119 4.09657 0.448835 4.58912 0.941393C5.08168 1.43395 5.3584 2.102 5.3584 2.79858C5.3584 4.24878 4.18164 5.44995 2.73193 5.44995ZM21.9756 22.0466H17.4502V14.9373C17.4502 13.2429 17.416 11.0701 15.0923 11.0701C12.7344 11.0701 12.373 12.9109 12.373 14.8152V22.0466H7.84277V7.44214H12.1924V9.43433H12.2559C12.8613 8.28687 14.3403 7.07593 16.5469 7.07593C21.1367 7.07593 21.9805 10.0984 21.9805 14.0242V22.0466H21.9756Z" />
</svg>
